<svg width="42" height="38" viewBox="0 0 42 38" fill="none" xmlns="http://www.w3.org/2000/svg">
<g id="twemoji:flag-belarus" clip-path="url(#clip0_168_348)">
<path id="Vector" d="M7 32.7222H37.3333C38.571 32.7222 39.758 32.2774 40.6332 31.4856C41.5083 30.6937 42 29.6198 42 28.5V24.2778H7V32.7222Z" fill="#4AA657"/>
<path id="Vector_2" d="M37.3333 5.27777H7V24.2778H42V9.49999C42 8.38019 41.5083 7.30625 40.6332 6.51443C39.758 5.72261 38.571 5.27777 37.3333 5.27777Z" fill="#C8313E"/>
<path id="Vector_3" d="M4.66667 5.27777C3.42899 5.27777 2.242 5.72261 1.36683 6.51443C0.491665 7.30625 0 8.38019 0 9.49999L0 28.5C0 29.6198 0.491665 30.6937 1.36683 31.4856C2.242 32.2774 3.42899 32.7222 4.66667 32.7222H7V5.27777H4.66667Z" fill="white"/>
<g id="Group">
<path id="Vector_4" d="M0.893776 30.8095L1.62294 29.6389L2.37078 30.8433L1.73844 31.7627C1.93737 31.9096 2.14969 32.0409 2.37311 32.1554L3.29711 30.6385L1.64044 28.2361L0.337276 30.058C0.550776 30.5435 0.863443 30.9784 1.24844 31.3563L0.893776 30.8095ZM6.97794 30.7135L5.23144 28.368L3.47911 30.6597L4.97944 32.7222H5.73428L6.97794 30.7135ZM5.28278 29.6379L6.03061 30.8423L5.28278 31.9305L4.55361 30.8095L5.28278 29.6379ZM7.00011 19.3515V18.4078L6.63494 18.868L7.00011 19.3515ZM3.29594 7.41633L2.25294 5.90266C1.33961 6.40495 0.645385 7.17657 0.287109 8.08766L1.78628 9.89583L3.29594 7.41633ZM0.893776 7.58733L1.62294 6.41672L2.37078 7.6211L1.62294 8.70833L0.893776 7.58733ZM5.38661 10.0605L6.97794 7.49022L5.33061 5.27777H5.13111L3.48028 7.43744L5.38661 10.0605ZM6.02944 7.62005L5.28278 8.70833L4.55361 7.58733L5.28278 6.41672L6.02944 7.62005Z" fill="#C8313E"/>
<path id="Vector_5" d="M5.7785 15.8333L6.79933 14.2996L7 14.3798V13.7222L5.35967 11.4127L3.39033 13.8869L1.64033 11.3472L0 13.641V14.3271L1.00217 15.8333L1.71267 14.8928L1.20283 14.25L1.5855 13.7877L2.69733 15.0902L1.057 17.5307L0 16.2144V17.8537L0.0676667 17.7724L1.1795 19.075L0 20.8314V22.0738L1.057 20.7565L2.69733 23.1969L1.77567 24.2778L1.5855 24.5005L1.40117 24.2778L1.20283 24.0382L1.71383 23.3953L1.00333 22.4548L0 23.9622V24.5691L1.67767 26.884L3.311 24.2778L3.37283 24.1786L3.4405 24.2778L5.3235 27.0317L7 24.3432V23.9305L6.85417 23.9896L5.83333 22.4548L5.12167 23.3953L5.63267 24.0382L5.43433 24.2778L5.25 24.5005L5.05983 24.2778L4.13817 23.198L5.7785 20.7575L7 22.2786V21.0731L5.65017 19.0655L6.762 17.7629L7 18.05V15.9421L5.72367 17.5328L4.08333 15.0913L5.19517 13.7887L5.57783 14.25L5.06683 14.8928L5.7785 15.8333ZM4.99917 17.9772V20.0123L3.37167 22.3377L1.83867 20.0028V17.9888L3.37167 15.6528L4.99917 17.9772Z" fill="#C8313E"/>
<path id="Vector_6" d="M2.36944 17.7576L3.06711 18.9092L2.36944 20.0608L2.88044 20.3142L3.39961 19.4581L3.91877 20.3142L4.42977 20.0608L3.73211 18.9092L4.42977 17.7576L3.91877 17.5043L3.39961 18.3603L2.88044 17.5043L2.36944 17.7576ZM0.0302734 27.6429L0.75944 28.7639L1.50727 27.6756L0.75944 26.4712L0.0302734 27.6429ZM1.79894 27.6429L2.52811 28.7639L3.27477 27.6756L2.52811 26.4712L1.79894 27.6429ZM3.53027 27.6429L4.25944 28.7639L5.00727 27.6756L4.25944 26.4712L3.53027 27.6429ZM5.38761 27.6429L6.11677 28.7639L6.86344 27.6756L6.11677 26.4712L5.38761 27.6429ZM0.0302734 10.6875L0.75944 11.8095L1.50727 10.7202L0.75944 9.51688L0.0302734 10.6875ZM1.79894 10.6875L2.52811 11.8095L3.27477 10.7202L2.52811 9.51688L1.79894 10.6875ZM3.53027 10.6875L4.25944 11.8095L5.00727 10.7202L4.25944 9.51688L3.53027 10.6875ZM5.38761 10.6875L6.11677 11.8095L6.86344 10.7202L6.11677 9.51688L5.38761 10.6875Z" fill="#C8313E"/>
</g>
</g>
<defs>
<clipPath id="clip0_168_348">
<rect width="42" height="38" fill="white"/>
</clipPath>
</defs>
</svg>
