<svg width="110" height="125" viewBox="0 0 110 125" fill="none" xmlns="http://www.w3.org/2000/svg">
<path d="M105.713 58.0519C105.264 58.0545 104.818 57.9683 104.402 57.7983C103.985 57.6282 103.607 57.3777 103.287 57.061L54.4632 8.20271L5.63906 57.061C4.98545 57.6208 4.14469 57.9133 3.2848 57.8801C2.4249 57.8468 1.60921 57.4904 1.00072 56.8819C0.392231 56.2734 0.035762 55.4577 0.00254809 54.5978C-0.0306659 53.7379 0.261822 52.8972 0.821562 52.2435L52.0716 0.993542C52.7117 0.357184 53.5777 0 54.4803 0C55.3829 0 56.2489 0.357184 56.8891 0.993542L108.139 52.2435C108.609 52.7232 108.928 53.3308 109.054 53.9903C109.181 54.6499 109.111 55.3322 108.852 55.952C108.593 56.5717 108.157 57.1015 107.599 57.4749C107.041 57.8484 106.385 58.0491 105.713 58.0519Z" fill="#D85D72"/>
<path d="M55 20L14 61.1367V102.717C14 104.53 14.7199 106.268 16.0014 107.549C17.2829 108.831 19.021 109.551 20.8333 109.551H44.75V75.3842H65.25V109.551H89.1667C90.979 109.551 92.7171 108.831 93.9986 107.549C95.2801 106.268 96 104.53 96 102.717V60.8975L55 20Z" fill="#D85D72"/>
<path d="M0 70.9545C0 69.9057 0.662533 68.8999 1.84185 68.1583C3.02116 67.4166 4.62066 67 6.28846 67H15.6289C16.3835 67 17.1382 67.0844 17.8341 67.2531L46.2244 73.9495C47.4232 74.2317 48.4565 74.7374 49.1861 75.3988C49.9158 76.0602 50.307 76.8459 50.3077 77.6509V109.076C50.307 109.881 49.9158 110.667 49.1861 111.328C48.4565 111.99 47.4232 112.496 46.2244 112.778L16.7692 119.727V121.045C16.7692 122.094 16.1067 123.1 14.9274 123.842C13.7481 124.583 12.1486 125 10.4808 125H6.28846C4.62066 125 3.02116 124.583 1.84185 123.842C0.662533 123.1 0 122.094 0 121.045V70.9545ZM25.1538 101.199V75.5207C25.1538 75.2526 25.0238 74.9909 24.7811 74.7704C24.5384 74.55 24.1946 74.3813 23.7955 74.2869L19.6032 73.3009C19.2861 73.2259 18.9447 73.2004 18.6084 73.2265C18.2721 73.2526 17.9508 73.3296 17.6722 73.4509C17.3936 73.5722 17.1659 73.7342 17.0087 73.923C16.8514 74.1117 16.7692 74.3216 16.7692 74.5347V102.079C16.7692 102.976 18.1695 103.614 19.5362 103.329L23.7285 102.454C24.1455 102.365 24.5076 102.196 24.7634 101.971C25.0193 101.746 25.1559 101.476 25.1538 101.199ZM33.5385 78.4945V98.5678C33.5369 98.7776 33.6151 98.9847 33.7664 99.1717C33.9177 99.3587 34.1378 99.5203 34.4084 99.643C34.6791 99.7657 34.9924 99.8461 35.3223 99.8773C35.6522 99.9086 35.9893 99.8899 36.3054 99.8227L40.4977 98.9422C40.9147 98.8536 41.2768 98.6847 41.5327 98.4595C41.7885 98.2342 41.9251 97.9641 41.9231 97.6873V79.4753C41.9231 79.2072 41.7931 78.9454 41.5504 78.725C41.3077 78.5045 40.9638 78.3358 40.5648 78.2415L36.3725 77.2555C36.0553 77.1804 35.7139 77.1549 35.3776 77.181C35.0413 77.2072 34.7201 77.2842 34.4415 77.4055C34.1628 77.5268 33.9352 77.6887 33.7779 77.8775C33.6206 78.0663 33.5385 78.2814 33.5385 78.4945ZM109 70.9545C109 69.9057 108.337 68.8999 107.158 68.1583C105.979 67.4166 104.379 67 102.712 67H93.3711C92.6178 67.0006 91.8709 67.0864 91.1659 67.2531L62.7756 73.9495C61.5768 74.2317 60.5435 74.7374 59.8139 75.3988C59.0842 76.0602 58.6929 76.8459 58.6923 77.6509V109.076C58.6929 109.881 59.0842 110.667 59.8139 111.328C60.5435 111.99 61.5768 112.496 62.7756 112.778L92.2308 119.727V121.045C92.2308 123.228 95.048 125 98.5192 125H102.712C104.379 125 105.979 124.583 107.158 123.842C108.337 123.1 109 122.094 109 121.045V70.9545ZM85.2715 102.454C84.8545 102.365 84.4924 102.196 84.2366 101.971C83.9807 101.746 83.8441 101.476 83.8461 101.199V75.5207C83.8461 75.2526 83.9762 74.9909 84.2189 74.7704C84.4616 74.55 84.8054 74.3813 85.2045 74.2869L89.3968 73.3009C89.7139 73.2259 90.0553 73.2004 90.3916 73.2265C90.7279 73.2526 91.0492 73.3296 91.3278 73.4509C91.6064 73.5722 91.8341 73.7342 91.9913 73.923C92.1486 74.1117 92.2308 74.3216 92.2308 74.5347V102.079C92.231 102.289 92.1518 102.495 92 102.682C91.8481 102.868 91.6278 103.029 91.3574 103.151C91.0869 103.273 90.7741 103.353 90.4448 103.384C90.1156 103.415 89.7793 103.396 89.4638 103.329L85.2715 102.454ZM75.4615 78.4893V98.5625C75.4631 98.7724 75.3849 98.9794 75.2336 99.1664C75.0823 99.3534 74.8622 99.515 74.5915 99.6377C74.3209 99.7605 74.0076 99.8408 73.6777 99.8721C73.3478 99.9033 73.0107 99.8846 72.6946 99.8175L68.5023 98.9369C68.0866 98.8486 67.7255 98.6805 67.4698 98.4564C67.2141 98.2322 67.0767 97.9632 67.0769 97.6873V79.4753C67.0769 79.2072 67.2069 78.9454 67.4496 78.725C67.6923 78.5045 68.0361 78.3358 68.4352 78.2415L72.6275 77.2555C72.9447 77.1804 73.2861 77.1549 73.6224 77.181C73.9587 77.2072 74.2799 77.2842 74.5585 77.4055C74.8371 77.5268 75.0648 77.6887 75.2221 77.8775C75.3794 78.0663 75.4615 78.2762 75.4615 78.4893Z" fill="#410E20"/>
</svg>
