<svg width="64" height="64" viewBox="0 0 64 64" fill="none" xmlns="http://www.w3.org/2000/svg">
<g clip-path="url(#clip0_213_54)">
<path d="M32 0.345215C23.515 0.345215 15.37 3.70824 9.375 9.68862C3.37381 15.6714 0.00166235 23.7851 0 32.2459C0 40.7031 3.375 48.8228 9.375 54.8032C15.37 60.7835 23.515 64.1466 32 64.1466C40.485 64.1466 48.63 60.7835 54.625 54.8032C60.625 48.8228 64 40.7031 64 32.2459C64 23.7887 60.625 15.669 54.625 9.68862C48.63 3.70824 40.485 0.345215 32 0.345215Z" fill="url(#paint0_linear_213_54)"/>
<path d="M14.4852 32.9088C23.8152 28.8574 30.0352 26.1862 33.1452 24.8957C42.0352 21.2107 43.8802 20.5707 45.0852 20.549C45.3502 20.5448 45.9402 20.6101 46.3252 20.9204C46.6452 21.182 46.7352 21.5359 46.7802 21.7844C46.8202 22.0326 46.8752 22.5984 46.8302 23.04C46.3502 28.0843 44.2652 40.3252 43.2052 45.9751C42.7602 48.3657 41.8752 49.1672 41.0202 49.2454C39.1602 49.4159 37.7502 48.0212 35.9502 46.8454C33.1352 45.0046 31.5452 43.8592 28.8102 42.0633C25.6502 39.9877 27.7002 38.8468 29.5002 36.9826C29.9702 36.4946 38.1602 29.0702 38.3152 28.3968C38.3352 28.3126 38.3552 27.9986 38.1652 27.8331C37.9802 27.6671 37.7052 27.7239 37.5052 27.7688C37.2202 27.8326 32.7252 30.7974 24.0052 36.6626C22.7302 37.5369 21.5752 37.963 20.5352 37.9406C19.3952 37.9162 17.1952 37.2966 15.5602 36.7673C13.5602 36.1178 11.9652 35.7744 12.1052 34.6713C12.1752 34.0971 12.9702 33.5094 14.4852 32.9088Z" fill="white"/>
</g>
<defs>
<linearGradient id="paint0_linear_213_54" x1="3200" y1="0.345215" x2="3200" y2="6380.48" gradientUnits="userSpaceOnUse">
<stop stop-color="#2AABEE"/>
<stop offset="1" stop-color="#229ED9"/>
</linearGradient>
<clipPath id="clip0_213_54">
<rect width="64" height="63.6123" fill="white"/>
</clipPath>
</defs>
</svg>
