<svg width="51" height="51" viewBox="0 0 51 51" fill="none" xmlns="http://www.w3.org/2000/svg">
<path d="M16.9258 14.1793C16.5309 14.1218 16.1281 14.2013 15.7847 14.4045H15.7549C14.958 14.872 14.2398 15.4606 13.6278 16.1534C13.1178 16.742 12.8415 17.337 12.7693 17.9108C12.7268 18.2508 12.7565 18.595 12.8564 18.9201L12.8947 18.9414C13.4684 20.6265 14.2164 22.2479 15.1302 23.7736C16.3084 25.9167 17.7583 27.8987 19.4439 29.6705L19.4949 29.7428L19.5757 29.8023L19.6245 29.8596L19.684 29.9106C21.4621 31.6014 23.4487 33.0581 25.5958 34.2456C28.0502 35.5823 29.5398 36.2134 30.4344 36.4769V36.4896C30.6958 36.5704 30.9338 36.6065 31.1739 36.6065C31.9358 36.5502 32.657 36.2405 33.2224 35.7268C33.913 35.1147 34.4974 34.3944 34.9522 33.5933V33.5784C35.3793 32.7709 35.2348 32.0101 34.6185 31.4938C33.3807 30.4122 32.0422 29.4516 30.6214 28.625C29.6694 28.1086 28.7025 28.421 28.3115 28.9438L27.4764 29.9978C27.0472 30.5205 26.2694 30.4483 26.2694 30.4483L26.2482 30.461C20.4448 28.9799 18.8957 23.1043 18.8957 23.1043C18.8957 23.1043 18.8234 22.3053 19.361 21.8973L20.4065 21.0558C20.908 20.6478 21.2565 19.683 20.7189 18.731C19.8978 17.3089 18.9391 15.9708 17.8565 14.736C17.6204 14.4454 17.2893 14.2475 16.9215 14.1771L16.9258 14.1793ZM26.7327 11.625C26.4509 11.625 26.1806 11.7369 25.9814 11.9362C25.7821 12.1355 25.6702 12.4057 25.6702 12.6875C25.6702 12.9693 25.7821 13.2395 25.9814 13.4388C26.1806 13.6381 26.4509 13.75 26.7327 13.75C29.4187 13.75 31.6499 14.6276 33.4158 16.3106C34.3232 17.2308 35.0308 18.3209 35.494 19.5151C35.9594 20.7115 36.1719 21.9886 36.1167 23.2679C36.1048 23.5497 36.2054 23.8246 36.3963 24.0322C36.5872 24.2399 36.8528 24.3632 37.1345 24.375C37.4163 24.3868 37.6913 24.2862 37.8989 24.0954C38.1065 23.9045 38.2298 23.6389 38.2417 23.3571C38.3076 21.7835 38.0464 20.2134 37.4745 18.7459C36.9002 17.2714 36.0294 15.9305 34.916 14.8061L34.8948 14.7849C32.7039 12.6918 29.9329 11.625 26.7327 11.625Z" fill="#9F1ECC"/>
<path d="M26.6582 15.1185C26.3764 15.1185 26.1062 15.2305 25.9069 15.4297C25.7076 15.629 25.5957 15.8992 25.5957 16.181C25.5957 16.4628 25.7076 16.7331 25.9069 16.9323C26.1062 17.1316 26.3764 17.2435 26.6582 17.2435H26.6943C28.6323 17.3816 30.0433 18.0276 31.0315 19.088C32.0451 20.1803 32.57 21.5381 32.5296 23.2169C32.5231 23.4987 32.6288 23.7715 32.8235 23.9754C33.0182 24.1792 33.2858 24.2974 33.5676 24.3038C33.8494 24.3103 34.1223 24.2046 34.3261 24.0099C34.5299 23.8152 34.6481 23.5476 34.6546 23.2658C34.7056 21.0621 33.9958 19.1603 32.5891 17.643V17.6388C31.1505 16.096 29.1763 15.28 26.8006 15.1206L26.7645 15.1164L26.6582 15.1185Z" fill="#9F1ECC"/>
<path d="M26.6178 18.6779C26.4756 18.6653 26.3323 18.6816 26.1966 18.7256C26.0608 18.7697 25.9353 18.8406 25.8275 18.9342C25.7198 19.0279 25.632 19.1422 25.5694 19.2705C25.5069 19.3988 25.4708 19.5384 25.4634 19.681C25.4559 19.8235 25.4773 19.9661 25.5262 20.1002C25.5751 20.2343 25.6505 20.3572 25.7479 20.4615C25.8454 20.5658 25.9628 20.6495 26.0933 20.7074C26.2238 20.7653 26.3646 20.7963 26.5073 20.7986C27.3956 20.8454 27.9629 21.1131 28.3199 21.4723C28.6791 21.8335 28.9468 22.4136 28.9957 23.321C28.9983 23.4636 29.0297 23.6042 29.0878 23.7344C29.1459 23.8646 29.2297 23.9818 29.3341 24.079C29.4385 24.1761 29.5614 24.2513 29.6954 24.3C29.8295 24.3486 29.9719 24.3698 30.1143 24.3623C30.2568 24.3547 30.3962 24.3185 30.5243 24.2559C30.6525 24.1934 30.7667 24.1056 30.8602 23.9979C30.9537 23.8903 31.0246 23.7649 31.0686 23.6292C31.1126 23.4936 31.1289 23.3504 31.1164 23.2084C31.0484 21.9334 30.6489 20.8071 29.8308 19.9784C29.0084 19.1496 27.8886 18.7459 26.6178 18.6779Z" fill="#9F1ECC"/>
<path fill-rule="evenodd" clip-rule="evenodd" d="M15.0175 6.066C21.7794 4.5545 28.7916 4.5545 35.5535 6.066L36.2738 6.22538C38.2505 6.66727 40.066 7.64855 41.5185 9.06017C42.971 10.4718 44.0037 12.2585 44.5018 14.2218C46.2182 20.9854 46.2182 28.0706 44.5018 34.8343C44.0037 36.7975 42.971 38.5842 41.5185 39.9958C40.066 41.4075 38.2505 42.3887 36.2738 42.8306L35.5513 42.99C31.3163 43.9371 26.9706 44.2939 22.6377 44.0504L17.0001 49.0951C16.7875 49.2854 16.5278 49.4152 16.248 49.4709C15.9682 49.5265 15.6786 49.5061 15.4094 49.4116C15.1402 49.3172 14.9013 49.1522 14.7176 48.934C14.5339 48.7157 14.4122 48.4521 14.3651 48.1707L13.4322 42.599C11.6433 42.0424 10.0271 41.0363 8.73802 39.6769C7.44891 38.3174 6.52999 36.6501 6.06908 34.8343C4.35262 28.0706 4.35262 20.9854 6.06908 14.2218C6.56723 12.2585 7.59993 10.4718 9.05245 9.06017C10.505 7.64855 12.3204 6.66727 14.2971 6.22538L15.0175 6.066ZM34.8586 9.17488C28.5543 7.76559 22.0166 7.76559 15.7123 9.17488L14.9898 9.33638C13.5889 9.65015 12.3023 10.3461 11.2729 11.3469C10.2436 12.3477 9.51182 13.6143 9.15883 15.0059C7.57298 21.2549 7.57298 27.8011 9.15883 34.0501C9.51199 35.442 10.2441 36.7087 11.2738 37.7096C12.3036 38.7104 13.5906 39.4062 14.992 39.7196L15.1832 39.7621C15.4926 39.8313 15.7743 39.9912 15.9924 40.2214C16.2104 40.4515 16.3548 40.7415 16.4072 41.0541L17.032 44.7899L21.01 41.2305C21.1688 41.0879 21.3547 40.9787 21.5566 40.9094C21.7584 40.84 21.9722 40.8119 22.1851 40.8268C26.4331 41.1281 30.7023 40.8096 34.8586 39.8811L35.579 39.7196C36.9803 39.4062 38.2674 38.7104 39.2971 37.7096C40.3268 36.7087 41.0589 35.442 41.4121 34.0501C42.9973 27.8026 42.9973 21.2555 41.4121 15.0059C41.0589 13.614 40.3268 12.3473 39.2971 11.3464C38.2674 10.3456 36.9803 9.6498 35.579 9.33638L34.8586 9.17488Z" fill="#9F1ECC"/>
</svg>
