<svg width="56" height="62" viewBox="0 0 56 62" fill="none" xmlns="http://www.w3.org/2000/svg">
<g clip-path="url(#clip0_213_58)">
<path d="M16.2313 14.4345C15.6892 14.3556 15.1365 14.4648 14.665 14.7437H14.6242C13.5305 15.3854 12.5446 16.1933 11.7046 17.1441C11.0046 17.952 10.6255 18.7687 10.5263 19.5562C10.468 20.0229 10.5088 20.4954 10.6459 20.9416L10.6984 20.9708C11.4859 23.2837 12.5125 25.5091 13.7667 27.6033C15.3839 30.5447 17.3739 33.2651 19.6875 35.697L19.7575 35.7962L19.8684 35.8779L19.9355 35.9566L20.0171 36.0266C22.4576 38.3472 25.1844 40.3467 28.1313 41.9766C31.5 43.8112 33.5446 44.6775 34.7725 45.0391V45.0566C35.1313 45.1675 35.458 45.217 35.7875 45.217C36.8333 45.1398 37.8231 44.7147 38.5992 44.0095C39.5471 43.1695 40.3492 42.1808 40.9734 41.0812V41.0608C41.5596 39.9525 41.3613 38.9083 40.5155 38.1995C38.8165 36.7151 36.9794 35.3966 35.0292 34.262C33.7225 33.5533 32.3955 33.982 31.8588 34.6995L30.7126 36.1462C30.1234 36.8637 29.0559 36.7645 29.0559 36.7645L29.0267 36.782C21.0613 34.7491 18.9351 26.6845 18.9351 26.6845C18.9351 26.6845 18.8359 25.5879 19.5738 25.0279L21.0088 23.8729C21.6971 23.3129 22.1755 21.9887 21.4375 20.682C20.3106 18.7301 18.9947 16.8935 17.5088 15.1987C17.1847 14.7998 16.7302 14.5282 16.2255 14.4316L16.2313 14.4345ZM29.6917 10.9287C29.3049 10.9287 28.934 11.0824 28.6605 11.3558C28.387 11.6293 28.2334 12.0003 28.2334 12.387C28.2334 12.7738 28.387 13.1448 28.6605 13.4182C28.934 13.6917 29.3049 13.8454 29.6917 13.8454C33.3784 13.8454 36.4409 15.05 38.8646 17.36C40.1101 18.6229 41.0813 20.1191 41.7171 21.7583C42.3559 23.4004 42.6475 25.1533 42.5717 26.9091C42.5555 27.2959 42.6935 27.6733 42.9555 27.9583C43.2175 28.2432 43.582 28.4125 43.9688 28.4287C44.3556 28.445 44.733 28.3069 45.0179 28.0449C45.3029 27.7829 45.4721 27.4184 45.4884 27.0316C45.5789 24.8718 45.2203 22.7167 44.4355 20.7025C43.6472 18.6787 42.452 16.8382 40.9238 15.295L40.8946 15.2658C37.8875 12.3929 34.0842 10.9287 29.6917 10.9287Z" fill="white"/>
<path d="M29.5897 15.7236C29.2029 15.7236 28.832 15.8773 28.5585 16.1508C28.285 16.4242 28.1313 16.7952 28.1313 17.182C28.1313 17.5687 28.285 17.9397 28.5585 18.2131C28.832 18.4866 29.2029 18.6403 29.5897 18.6403H29.6393C32.2993 18.8299 34.2359 19.7165 35.5922 21.172C36.9834 22.6711 37.7038 24.5349 37.6484 26.839C37.6395 27.2258 37.7846 27.6003 38.0518 27.8801C38.319 28.1598 38.6864 28.322 39.0732 28.3309C39.46 28.3398 39.8345 28.1947 40.1142 27.9275C40.394 27.6603 40.5562 27.2929 40.5651 26.9061C40.6351 23.8815 39.6609 21.2711 37.7301 19.1886V19.1828C35.7555 17.0653 33.0459 15.9453 29.7851 15.7265L29.7355 15.7207L29.5897 15.7236Z" fill="white"/>
<path d="M29.5343 20.6092C29.3391 20.5919 29.1425 20.6142 28.9561 20.6747C28.7697 20.7351 28.5975 20.8325 28.4496 20.961C28.3017 21.0895 28.1812 21.2465 28.0953 21.4226C28.0094 21.5987 27.9599 21.7903 27.9497 21.986C27.9395 22.1816 27.9689 22.3773 28.036 22.5614C28.1031 22.7455 28.2066 22.9141 28.3404 23.0573C28.4741 23.2005 28.6353 23.3153 28.8144 23.3947C28.9934 23.4742 29.1867 23.5168 29.3826 23.52C30.6018 23.5842 31.3805 23.9517 31.8705 24.4446C32.3634 24.9404 32.7309 25.7367 32.798 26.9821C32.8017 27.1778 32.8447 27.3708 32.9245 27.5495C33.0043 27.7282 33.1192 27.8891 33.2625 28.0224C33.4058 28.1558 33.5744 28.2589 33.7584 28.3257C33.9424 28.3925 34.138 28.4216 34.3334 28.4112C34.5289 28.4009 34.7203 28.3512 34.8962 28.2653C35.072 28.1794 35.2288 28.059 35.3572 27.9112C35.4855 27.7634 35.5828 27.5913 35.6432 27.4051C35.7036 27.2189 35.726 27.0225 35.7088 26.8275C35.6155 25.0775 35.0672 23.5317 33.9443 22.3942C32.8155 21.2567 31.2784 20.7025 29.5343 20.6092Z" fill="white"/>
<path fill-rule="evenodd" clip-rule="evenodd" d="M13.612 2.29864C22.893 0.224022 32.5177 0.224022 41.7987 2.29864L42.7874 2.51739C45.5005 3.12391 47.9923 4.47076 49.986 6.40829C51.9796 8.34581 53.397 10.7981 54.0808 13.4928C56.4366 22.7762 56.4366 32.501 54.0808 41.7845C53.397 44.4791 51.9796 46.9315 49.986 48.869C47.9923 50.8065 45.5005 52.1534 42.7874 52.7599L41.7958 52.9786C35.9829 54.2785 30.0182 54.7683 24.0712 54.4341L16.3333 61.3582C16.0415 61.6194 15.6851 61.7975 15.301 61.8739C14.917 61.9503 14.5195 61.9223 14.15 61.7927C13.7805 61.663 13.4526 61.4366 13.2004 61.137C12.9483 60.8374 12.7812 60.4757 12.7166 60.0895L11.4362 52.442C8.98088 51.678 6.76254 50.2971 4.99318 48.4312C3.22381 46.5653 1.96255 44.2768 1.32993 41.7845C-1.02599 32.5011 -1.02599 22.7762 1.32993 13.4928C2.01366 10.7981 3.43109 8.34581 5.42474 6.40829C7.41839 4.47076 9.91019 3.12391 12.6233 2.51739L13.612 2.29864ZM40.8449 6.56572C32.192 4.6314 23.2187 4.6314 14.5658 6.56572L13.5741 6.78739C11.6512 7.21805 9.88529 8.17326 8.47248 9.54694C7.05968 10.9206 6.05526 12.659 5.57077 14.5691C3.3941 23.1462 3.3941 32.1311 5.57077 40.7082C6.05549 42.6186 7.06034 44.3573 8.4737 45.731C9.88706 47.1047 11.6536 48.0597 13.577 48.4899L13.8395 48.5482C14.2642 48.6432 14.6508 48.8626 14.9501 49.1785C15.2494 49.4944 15.4476 49.8924 15.5195 50.3216L16.377 55.4491L21.837 50.5636C22.0551 50.368 22.3102 50.2181 22.5872 50.1229C22.8643 50.0277 23.1577 49.9891 23.4499 50.0095C29.2805 50.4231 35.1403 49.9859 40.8449 48.7116L41.8337 48.4899C43.7571 48.0597 45.5236 47.1047 46.937 45.731C48.3504 44.3573 49.3552 42.6186 49.8399 40.7082C52.0158 32.1332 52.0158 23.147 49.8399 14.5691C49.3552 12.6586 48.3504 10.92 46.937 9.54628C45.5236 8.17256 43.7571 7.21757 41.8337 6.78739L40.8449 6.56572Z" fill="white"/>
</g>
<defs>
<clipPath id="clip0_213_58">
<rect width="56" height="61.8163" fill="white" transform="translate(0 -0.00585938)"/>
</clipPath>
</defs>
</svg>
